<svg xmlns="http://www.w3.org/2000/svg" role="img" xmlns:xlink="http://www.w3.org/1999/xlink" viewBox="-17.64 -7.64 1593.28 304.28"><title>cncf-logo-pride.svg</title><defs><linearGradient id="a" x1="-28.955" x2="1508.17" y1="25.985" y2="284.44" gradientUnits="userSpaceOnUse"><stop offset="0" stop-color="#8331b4"/><stop offset=".137" stop-color="#0087ff"/><stop offset=".27" stop-color="#00cd5b"/><stop offset=".396" stop-color="#ffe300"/><stop offset=".519" stop-color="#f70"/><stop offset=".639" stop-color="red"/><stop offset=".763" stop-color="#ffafc9"/><stop offset=".876" stop-color="#74d7ed"/><stop offset=".935" stop-color="#623915"/><stop offset="1" stop-color="#623915"/></linearGradient><linearGradient id="b" x1="-26.907" x2="1510.218" y1="13.809" y2="272.264" xlink:href="#a"/><linearGradient id="c" x1="-23.247" x2="1513.878" y1="-7.959" y2="250.496" xlink:href="#a"/><linearGradient id="d" x1="-19.365" x2="1517.76" y1="-31.046" y2="227.408" xlink:href="#a"/><linearGradient id="e" x1="-17.149" x2="1519.976" y1="-44.229" y2="214.226" xlink:href="#a"/><linearGradient id="f" x1="-11.805" x2="1525.32" y1="-76.013" y2="182.442" xlink:href="#a"/><linearGradient id="g" x1="-9.01" x2="1528.116" y1="-92.637" y2="165.818" xlink:href="#a"/><linearGradient id="h" x1="-5.125" x2="1532.001" y1="-115.742" y2="142.712" xlink:href="#a"/><linearGradient id="i" x1="-3.487" x2="1533.638" y1="-125.483" y2="132.972" xlink:href="#a"/><linearGradient id="j" x1="-.609" x2="1536.516" y1="-142.595" y2="115.859" xlink:href="#a"/><linearGradient id="k" x1="1.793" x2="1538.918" y1="-156.885" y2="101.569" xlink:href="#a"/><linearGradient id="l" x1="-51.607" x2="1485.518" y1="160.708" y2="419.163" xlink:href="#a"/><linearGradient id="m" x1="-49.811" x2="1487.314" y1="150.026" y2="408.48" xlink:href="#a"/><linearGradient id="n" x1="-47.664" x2="1489.461" y1="137.255" y2="395.709" xlink:href="#a"/><linearGradient id="o" x1="-45.886" x2="1491.239" y1="126.682" y2="385.136" xlink:href="#a"/><linearGradient id="p" x1="-43.579" x2="1493.547" y1="112.958" y2="371.412" xlink:href="#a"/><linearGradient id="q" x1="-41.923" x2="1495.202" y1="103.112" y2="361.566" xlink:href="#a"/><linearGradient id="r" x1="-41.005" x2="1496.12" y1="97.652" y2="356.107" xlink:href="#a"/><linearGradient id="s" x1="-39.581" x2="1497.544" y1="89.185" y2="347.639" xlink:href="#a"/><linearGradient id="t" x1="-37.488" x2="1499.637" y1="76.736" y2="335.19" xlink:href="#a"/><linearGradient id="u" x1="-35.232" x2="1501.893" y1="63.319" y2="321.774" xlink:href="#a"/><linearGradient id="v" x1="-33.427" x2="1503.698" y1="52.583" y2="311.038" xlink:href="#a"/><linearGradient id="w" x1="-31.251" x2="1505.874" y1="39.642" y2="298.097" xlink:href="#a"/><linearGradient id="x" x1="-29.582" x2="1507.543" y1="29.716" y2="288.171" xlink:href="#a"/><linearGradient id="y" x1="-27.976" x2="1509.149" y1="20.165" y2="278.619" xlink:href="#a"/><linearGradient id="z" x1="-26.152" x2="1510.973" y1="9.316" y2="267.771" xlink:href="#a"/><linearGradient id="A" x1="-23.974" x2="1513.151" y1="-3.636" y2="254.818" xlink:href="#a"/><linearGradient id="B" x1="-23.056" x2="1514.069" y1="-9.095" y2="249.359" xlink:href="#a"/><linearGradient id="C" x1="-21.555" x2="1515.57" y1="-18.025" y2="240.43" xlink:href="#a"/><linearGradient id="D" x1="-19.578" x2="1517.547" y1="-29.782" y2="228.673" xlink:href="#a"/><linearGradient id="E" x1="-59.956" x2="1477.169" y1="210.362" y2="468.817" xlink:href="#a"/><linearGradient id="F" x1="-54.863" x2="1482.262" y1="180.073" y2="438.527" xlink:href="#a"/><linearGradient id="G" x1="-32.816" x2="1504.309" y1="48.952" y2="307.407" xlink:href="#a"/><linearGradient id="H" x1="-27.723" x2="1509.402" y1="18.66" y2="277.114" xlink:href="#a"/><linearGradient id="I" x1="-29.955" x2="1507.17" y1="31.934" y2="290.389" xlink:href="#a"/><linearGradient id="J" x1="-57.725" x2="1479.4" y1="197.09" y2="455.545" xlink:href="#a"/><linearGradient id="K" x1="-40.979" x2="1496.147" y1="97.495" y2="355.95" xlink:href="#a"/><linearGradient id="L" x1="-46.701" x2="1490.424" y1="131.53" y2="389.985" xlink:href="#a"/></defs><path fill="url(#a)" d="M377.50171 129.20951q18.56064 0 30.34416-14.68606l16.13653 16.62248q-19.20424 21.63056-45.26962 21.6268-26.06711 0-42.93065-16.45934-16.86934-16.4649-16.86558-41.56 0-25.09329 17.18827-41.88285 17.18829-16.78383 42.04229-16.78192 27.75858 0 46.4808 21.14072l-15.65439 17.754q-11.94285-14.84754-29.69494-14.84952a34.62063 34.62063 0 0 0-24.29215 9.27945q-10.08625 9.28329-10.0844 25.01739 0 15.736 9.52254 25.25642a31.40691 31.40691 0 0 0 23.07714 9.52243"/><path fill="url(#b)" d="M443.835 151.483V38.671h25.177v90.376h48.094v22.436h-73.271z"/><path fill="url(#c)" d="M627.33789 135.9068q-17.10849 16.70422-42.122 16.70232-25.01923 0-42.12582-16.70232-17.1085-16.70406-17.10474-41.55632 0-24.85395 17.10474-41.56 17.10276-16.70422 42.12582-16.70231 25.01351 0 42.122 16.70231 17.10277 16.70406 17.10845 41.56 0 24.85411-17.10845 41.55632m-8.55422-41.47661a36.9215 36.9215 0 0 0-9.682-25.74249 31.932 31.932 0 0 0-47.61227 0 36.90779 36.90779 0 0 0-9.68569 25.74249q0 15.09253 9.68569 25.66278a32.09254 32.09254 0 0 0 47.61227 0q9.682-10.57029 9.682-25.66278"/><path fill="url(#d)" d="M695.60458 122.35209q6.29313 7.831 16.94135 7.82911 10.65582 0 16.87311-7.82911 6.2078-7.831 6.21168-21.3837V38.67006h25.17671v63.10328q0 24.535-13.5546 37.68349-13.56043 13.156-34.7069 13.15229-21.1406 0-34.77514-13.232-13.64006-13.23-13.63814-37.60377V38.67006h25.17671v62.29833q0 13.5547 6.29522 21.3837"/><path fill="url(#e)" d="M873.13322 53.43468q16.13467 14.76769 16.14035 41.0779 0 26.30626-15.734 41.63986-15.736 15.33153-48.01851 15.33158h-38.572V38.66878h39.8667q30.179 0 46.31742 14.7659m-18.47906 67.05955q9.27753-8.71371 9.27933-25.33614 0-16.62445-9.27933-25.58306-9.28328-8.95287-28.48387-8.95675h-14.04063V129.208h15.97709q17.26788 0 26.54745-8.71378"/><path fill="url(#f)" d="M1032.59 38.67h25.18v112.811h-25.18l-53.741-70.689v70.689h-25.18V38.67h23.563l55.358 72.625V38.67z"/><path fill="url(#g)" d="M1165.89879 151.48251l-10.49064-24.368h-47.28957l-10.49064 24.368h-26.79043l48.74374-112.81129h24.36805l48.73992 112.81129zM1131.845 72.23888l-14.204 32.763h28.24471z"/><path fill="url(#h)" d="M1245.305 60.457v91.025h-25.181V60.457h-31.954V38.671h89.089v21.786h-31.954z"/><path fill="url(#i)" d="M1295.655 38.668h25.181v112.811h-25.181z"/><path fill="url(#j)" d="M1390.229 110.489l28.727-71.821h27.28l-45.353 112.815h-21.304l-45.353-112.815h27.28l28.723 71.821z"/><path fill="url(#k)" d="M1540.968 38.67v22.431h-56.163v23.241h50.517v21.467h-50.517v23.4h57.94v22.272h-83.12V38.67h81.343z"/><path fill="url(#l)" d="M348.63594 247.56009a20.82154 20.82154 0 0 0 17.00589-8.23152l9.04795 9.31745q-10.7641 12.12516-25.37427 12.12325-14.61405 0-24.06435-9.23009-9.45395-9.22626-9.45406-23.29347 0-14.073 9.6325-23.47967a32.4562 32.4562 0 0 1 23.56692-9.40853 33.41191 33.41191 0 0 1 26.05767 11.85374l-8.7782 9.9515q-6.692-8.32648-16.64531-8.32272a19.40008 19.40008 0 0 0-13.61542 5.20176q-5.65545 5.20545-5.65353 14.02166 0 8.82183 5.33836 14.15839a17.62012 17.62012 0 0 0 12.93585 5.33825"/><path fill="url(#m)" d="M437.65657 251.31254a34.44529 34.44529 0 0 1-47.22492 0 33.08232 33.08232 0 0 1 0-46.58705 34.44529 34.44529 0 0 1 47.22492 0 33.08234 33.08234 0 0 1 0 46.58705m-4.79529-23.24805a20.706 20.706 0 0 0-5.42955-14.43173 17.9008 17.9008 0 0 0-26.68788 0 21.841 21.841 0 0 0 0 28.81422 17.98494 17.98494 0 0 0 26.68788 0 20.5266 20.5266 0 0 0 5.42955-14.38249"/><path fill="url(#n)" d="M515.821 220.237L498.723 254.8h-8.417L473.3 220.237v39.806h-14.113v-63.236h19.087l16.284 34.741 16.376-34.741h18.999v63.236h-14.112v-39.806z"/><path fill="url(#o)" d="M589.05409 202.46069q6.652 5.65527 6.64816 17.37043 0 11.71515-6.8266 17.14274-6.83436 5.42757-20.856 5.42943h-8.41379v17.64006H545.493v-63.23619h22.3482q14.56278 0 21.21291 5.65353m-10.35774 24.88054q2.52852-2.85318 2.53245-8.32259 0-5.47313-3.30322-7.77975-3.30333-2.30657-10.26666-2.31219h-8.05309v21.26215h9.49973q7.0563 0 9.59079-2.84762"/><path fill="url(#p)" d="M623.47583 243.71506a11.55177 11.55177 0 0 0 9.4996 4.38545 11.42478 11.42478 0 0 0 9.45407-4.38545q3.48549-4.391 3.48178-11.98652v-34.91941H660.024v35.37118q0 13.75407-7.59737 21.12183-7.59753 7.37525-19.45122 7.37722-11.85175 0-19.49675-7.419-7.64291-7.42078-7.643-21.08v-35.37123h14.11285v34.91941q0 7.59736 3.52732 11.98652"/><path fill="url(#q)" d="M701.459 209.021v51.022h-14.113v-51.022h-17.913v-12.215h49.94v12.215h-17.914z"/><path fill="url(#r)" d="M729.685 196.806h14.117v63.236h-14.117z"/><path fill="url(#s)" d="M803.597 196.807h14.113v63.236h-14.113l-30.128-39.623v39.623h-14.112v-63.236h13.209l31.031 40.714v-40.714z"/><path fill="url(#t)" d="M874.34291 227.8382H888.543v22.43557q-9.40859 10.49625-26.05384 10.49434-13.93065 0-23.38466-9.23009-9.45413-9.22626-9.45418-23.29347 0-14.06726 9.63645-23.47584a32.04913 32.04913 0 0 1 23.25175-9.41236 34.39434 34.39434 0 0 1 23.65417 8.96058l-7.32785 10.58554a27.99446 27.99446 0 0 0-7.82528-5.11439 21.01733 21.01733 0 0 0-7.73409-1.401 18.51458 18.51458 0 0 0-13.56989 5.47126q-5.51867 5.47886-5.52063 14.43173 0 8.95287 5.29283 14.34066a17.09014 17.09014 0 0 0 12.62068 5.38007 24.26449 24.26449 0 0 0 12.21444-2.80208z"/><path fill="url(#u)" d="M968.429 196.807v12.397h-29.311v13.657h27.865v12.397h-27.865v24.785h-14.117v-63.236h43.428z"/><path fill="url(#v)" d="M1033.56594 251.31254a34.44527 34.44527 0 0 1-47.22491 0 33.08232 33.08232 0 0 1 0-46.58705 34.44527 34.44527 0 0 1 47.22491 0 33.09141 33.09141 0 0 1 0 46.58705m-4.79528-23.24805a20.706 20.706 0 0 0-5.42955-14.43173 17.9008 17.9008 0 0 0-26.68788 0 21.82943 21.82943 0 0 0 0 28.81422 17.98494 17.98494 0 0 0 26.68788 0 20.5266 20.5266 0 0 0 5.42955-14.38249"/><path fill="url(#w)" d="M1071.83353 243.71506a11.55176 11.55176 0 0 0 9.4996 4.38545 11.41981 11.41981 0 0 0 9.45407-4.38545q3.48549-4.391 3.48178-11.98652v-34.91941h14.11656v35.37118q0 13.75407-7.60119 21.12183-7.59753 7.37525-19.45122 7.37722-11.85176 0-19.49675-7.419-7.64863-7.42078-7.643-21.08v-35.37123h14.11285v34.91941q0 7.59736 3.52732 11.98652"/><path fill="url(#x)" d="M1167.277 196.807h14.113v63.236h-14.113l-30.128-39.623v39.623h-14.113v-63.236h13.21l31.031 40.714v-40.714z"/><path fill="url(#y)" d="M1245.26212 205.08457q9.03855 8.28094 9.04412 23.02395 0 14.75083-8.82 23.343-8.822 8.59413-26.91568 8.59222h-21.62286v-63.23623h22.34809q16.91487 0 25.96636 8.27706m-10.36133 37.58858q5.19954-4.88079 5.20163-14.2001 0-9.32307-5.20163-14.34436-5.20546-5.01184-15.96956-5.01949h-7.867v38.45054h8.95282q9.682 0 14.88374-4.88659"/><path fill="url(#z)" d="M1309.76441 260.04369l-5.87762-13.65713h-26.50944l-5.8811 13.65713h-15.01652l27.32192-63.23618h13.66107l27.31822 63.23618zm-19.08657-44.41912l-7.96213 18.36528h15.83295z"/><path fill="url(#A)" d="M1354.278 209.021v51.022h-14.116v-51.022h-17.914v-12.215h49.944v12.215h-17.914z"/><path fill="url(#B)" d="M1382.5 196.806h14.117v63.236H1382.5z"/><path fill="url(#C)" d="M1465.37 251.31254a34.44529 34.44529 0 0 1-47.22492 0 33.08234 33.08234 0 0 1 0-46.58705 34.44529 34.44529 0 0 1 47.22492 0 33.09143 33.09143 0 0 1 0 46.58705m-4.79517-23.24805a20.70611 20.70611 0 0 0-5.42967-14.43173 17.9008 17.9008 0 0 0-26.68788 0 21.82943 21.82943 0 0 0 0 28.81422 17.98494 17.98494 0 0 0 26.68788 0 20.5267 20.5267 0 0 0 5.42967-14.38249"/><path fill="url(#D)" d="M1531.139 196.807h14.112v63.236h-14.112l-30.129-39.623v39.623h-14.112v-63.236h13.209l31.032 40.714v-40.714z"/><path fill="url(#E)" d="M48.417 185.14H13.676v81.047H94.72V231.45H48.417v-46.31z"/><path fill="url(#F)" d="M222.076 185.4v46.051h-46.052l-.254-.254v34.992h81.043v-81.048h-34.995l.258.259z"/><path fill="url(#G)" d="M13.677 104.108h34.999l-.258-.265V57.791h46.048l.255.258V23.057H13.677v81.051z"/><path fill="url(#H)" d="M175.768 23.056v34.733h46.306v46.318h34.737V23.056h-81.043z"/><path fill="url(#I)" d="M171.48 104.108l-46.318-46.317h50.605V23.057H94.719v34.992l46.06 46.059h30.701z"/><path fill="url(#J)" d="M129.711 185.14H99.013l38.375 38.379 7.939 7.931H94.719v34.737h81.047v-34.991l-23.028-23.032-23.027-23.024z"/><path fill="url(#K)" d="M222.076 104.108V154.701l-7.935-7.935-38.371-38.371v30.701l23.02 23.02 23.028 23.024h34.995v-81.032h-34.737z"/><path fill="url(#L)" d="M94.721 150.146l-46.045-46.037H13.677v81.032h34.741v-50.6l46.303 46.306v-30.701z"/></svg>